<?xml version="1.0" encoding="UTF-8"?>
<svg id="Layer_1" xmlns="http://www.w3.org/2000/svg" version="1.1" viewBox="0 0 657.9 258">
  <!-- Generator: Adobe Illustrator 29.0.0, SVG Export Plug-In . SVG Version: 2.1.0 Build 186)  -->
  <defs>
    <style>
      .st0 {
        fill: #fff;
      }

      .st1 {
        fill: #cc0a1e;
      }
    </style>
  </defs>
  <path class="st1" d="M110.2,181.9c-25.4-19.6-55.2-42.5-55.2-82.4s49.7-75.1,90.4-32.9l18.1,18.1c2.6,2.6,6.9,2.6,9.6,0,2.6-2.6,2.6-6.9,0-9.6l-17.5-17.5c38.3-28.1,80.2,1.5,80.2,41.9s-29.8,62.8-55.2,82.4c-2.6,2-5.2,4-7.7,6-9.4,7.4-18.4,14.4-27.5,14.4s-18.1-7-27.5-14.4c-2.5-2-5.1-4-7.7-6Z"/>
  <g>
    <path class="st0" d="M375.7,121.2c0,42.9-26,67.4-61.3,67.4s-59.1-27.6-59.1-65.1,24.8-67.1,61-67.1,59.4,28.2,59.4,64.8ZM280,123c0,26.1,13.2,46.9,35.6,46.9s35.4-21,35.4-47.8-12-47-35.3-47-35.6,21.6-35.6,47.9Z"/>
    <path class="st0" d="M487.7,182.8c-5.5,2.8-17.7,5.8-33.2,5.8-40.6,0-65.4-25.5-65.4-64.5s29.4-67.5,68.5-67.5,26.3,3.1,31,5.7l-5.1,18.6c-6-2.7-14.5-5-25-5-26.1,0-44.9,16.3-44.9,47.1s16.4,46.1,44.6,46.1,19.3-1.9,25.5-4.6l3.9,18.4Z"/>
    <path class="st0" d="M507.4,60.3c8.9-1.6,21.9-2.8,35.5-2.8s30.9,3.1,39.5,10.3c7,5.9,11,14.7,11,25.7,0,16.5-11.2,27.7-23.3,32v.5c9.3,3.5,14.7,12.3,17.9,24.8,4.1,16,7.6,30.7,10.1,35.7h-24c-2-3.7-5-14.3-8.6-30.2-3.7-16.7-9.7-22.1-23-22.4h-11.8v52.6h-23.2V60.3ZM530.6,116.8h13.8c15.9,0,25.6-8.4,25.6-21.1s-9.8-20.5-24.9-20.5c-7.4,0-12.2.6-14.5,1.2v40.4Z"/>
  </g>
</svg>